HIERARCHY
ROOT Hips
{
	OFFSET 0.000000 0.794594 0.001814
	CHANNELS 6 Xposition Yposition Zposition Zrotation Xrotation Yrotation
	JOINT Spine
	{
		OFFSET -0.000000 0.051920 0.010783
		CHANNELS 3 Zrotation Xrotation Yrotation
		JOINT Chest
		{
			OFFSET 0.000000 0.111800 0.002643
			CHANNELS 3 Zrotation Xrotation Yrotation
			JOINT UpperChest
			{
				OFFSET 0.000011 0.124994 0.000757
				CHANNELS 3 Zrotation Xrotation Yrotation
				JOINT Neck
				{
					OFFSET 0.000112 0.117645 -0.020286
					CHANNELS 3 Zrotation Xrotation Yrotation
					JOINT Head
					{
						OFFSET 0.000009 0.074358 -0.000161
						CHANNELS 3 Zrotation Xrotation Yrotation
						JOINT LeftEye
						{
							OFFSET 0.019846 0.051735 0.040589
							CHANNELS 3 Zrotation Xrotation Yrotation
							End Site
							{
								OFFSET -0.000199 0.054090 0.042333
							}
						}
						JOINT RightEye
						{
							OFFSET -0.020226 0.051740 0.040395
							CHANNELS 3 Zrotation Xrotation Yrotation
							End Site
							{
								OFFSET -0.000199 0.054090 0.042333
							}
						}
					}
				}
				JOINT LeftShoulder
				{
					OFFSET 0.022481 0.089795 -0.017340
					CHANNELS 3 Zrotation Xrotation Yrotation
					JOINT LeftUpperArm
					{
						OFFSET 0.087730 -0.000010 0.000425
						CHANNELS 3 Zrotation Xrotation Yrotation
						JOINT LeftLowerArm
						{
							OFFSET 0.210368 -0.000024 0.001018
							CHANNELS 3 Zrotation Xrotation Yrotation
							JOINT LeftHand
							{
								OFFSET 0.205447 -0.000023 0.000995
								CHANNELS 3 Zrotation Xrotation Yrotation
								JOINT LeftIndexProximal
								{
									OFFSET 0.064530 0.001495 0.020207
									CHANNELS 3 Zrotation Xrotation Yrotation
									JOINT LeftIndexIntermediate
									{
										OFFSET 0.033222 -0.000004 0.000161
										CHANNELS 3 Zrotation Xrotation Yrotation
										JOINT LeftIndexDistal
										{
											OFFSET 0.020455 -0.000002 0.000099
											CHANNELS 3 Zrotation Xrotation Yrotation
											End Site
											{
												OFFSET 0.020455 -0.000002 0.000099
											}
										}
									}
								}
								JOINT LeftLittleProximal
								{
									OFFSET 0.062810 -0.001965 -0.027941
									CHANNELS 3 Zrotation Xrotation Yrotation
									JOINT LeftLittleIntermediate
									{
										OFFSET 0.031399 -0.000004 0.000152
										CHANNELS 3 Zrotation Xrotation Yrotation
										JOINT LeftLittleDistal
										{
											OFFSET 0.018096 -0.000002 0.000088
											CHANNELS 3 Zrotation Xrotation Yrotation
											End Site
											{
												OFFSET 0.018096 -0.000002 0.000088
											}
										}
									}
								}
								JOINT LeftMiddleProximal
								{
									OFFSET 0.066616 0.003770 0.003447
									CHANNELS 3 Zrotation Xrotation Yrotation
									JOINT LeftMiddleIntermediate
									{
										OFFSET 0.037006 -0.000004 0.000179
										CHANNELS 3 Zrotation Xrotation Yrotation
										JOINT LeftMiddleDistal
										{
											OFFSET 0.022829 -0.000003 0.000111
											CHANNELS 3 Zrotation Xrotation Yrotation
											End Site
											{
												OFFSET 0.022829 -0.000003 0.000111
											}
										}
									}
								}
								JOINT LeftRingProximal
								{
									OFFSET 0.066883 0.003312 -0.012295
									CHANNELS 3 Zrotation Xrotation Yrotation
									JOINT LeftRingIntermediate
									{
										OFFSET 0.034327 -0.000004 0.000166
										CHANNELS 3 Zrotation Xrotation Yrotation
										JOINT LeftRingDistal
										{
											OFFSET 0.019811 -0.000002 0.000096
											CHANNELS 3 Zrotation Xrotation Yrotation
											End Site
											{
												OFFSET 0.019811 -0.000002 0.000096
											}
										}
									}
								}
								JOINT LeftThumbProximal
								{
									OFFSET 0.001872 -0.006642 0.017855
									CHANNELS 3 Zrotation Xrotation Yrotation
									JOINT LeftThumbIntermediate
									{
										OFFSET 0.032244 -0.005707 0.033063
										CHANNELS 3 Zrotation Xrotation Yrotation
										JOINT LeftThumbDistal
										{
											OFFSET 0.020631 -0.005083 0.019180
											CHANNELS 3 Zrotation Xrotation Yrotation
											End Site
											{
												OFFSET 0.020631 -0.005083 0.019180
											}
										}
									}
								}
							}
						}
					}
				}
				JOINT RightShoulder
				{
					OFFSET -0.022291 0.089803 -0.017557
					CHANNELS 3 Zrotation Xrotation Yrotation
					JOINT RightUpperArm
					{
						OFFSET -0.087729 0.000010 -0.000425
						CHANNELS 3 Zrotation Xrotation Yrotation
						JOINT RightLowerArm
						{
							OFFSET -0.210400 0.000024 -0.001019
							CHANNELS 3 Zrotation Xrotation Yrotation
							JOINT RightHand
							{
								OFFSET -0.205447 0.000024 -0.000995
								CHANNELS 3 Zrotation Xrotation Yrotation
								JOINT RightIndexProximal
								{
									OFFSET -0.064723 0.001510 0.019581
									CHANNELS 3 Zrotation Xrotation Yrotation
									JOINT RightIndexIntermediate
									{
										OFFSET -0.033222 0.000004 -0.000161
										CHANNELS 3 Zrotation Xrotation Yrotation
										JOINT RightIndexDistal
										{
											OFFSET -0.020455 0.000002 -0.000099
											CHANNELS 3 Zrotation Xrotation Yrotation
											End Site
											{
												OFFSET -0.020455 0.000002 -0.000099
											}
										}
									}
								}
								JOINT RightLittleProximal
								{
									OFFSET -0.062537 -0.001951 -0.028548
									CHANNELS 3 Zrotation Xrotation Yrotation
									JOINT RightLittleIntermediate
									{
										OFFSET -0.031399 0.000004 -0.000152
										CHANNELS 3 Zrotation Xrotation Yrotation
										JOINT RightLittleDistal
										{
											OFFSET -0.018096 0.000002 -0.000088
											CHANNELS 3 Zrotation Xrotation Yrotation
											End Site
											{
												OFFSET -0.018096 0.000002 -0.000088
											}
										}
									}
								}
								JOINT RightMiddleProximal
								{
									OFFSET -0.066645 0.003785 0.002802
									CHANNELS 3 Zrotation Xrotation Yrotation
									JOINT RightMiddleIntermediate
									{
										OFFSET -0.037006 0.000004 -0.000179
										CHANNELS 3 Zrotation Xrotation Yrotation
										JOINT RightMiddleDistal
										{
											OFFSET -0.022829 0.000003 -0.000110
											CHANNELS 3 Zrotation Xrotation Yrotation
											End Site
											{
												OFFSET -0.022829 0.000003 -0.000111
											}
										}
									}
								}
								JOINT RightRingProximal
								{
									OFFSET -0.066760 0.003327 -0.012943
									CHANNELS 3 Zrotation Xrotation Yrotation
									JOINT RightRingIntermediate
									{
										OFFSET -0.034327 0.000004 -0.000166
										CHANNELS 3 Zrotation Xrotation Yrotation
										JOINT RightRingDistal
										{
											OFFSET -0.019810 0.000002 -0.000096
											CHANNELS 3 Zrotation Xrotation Yrotation
											End Site
											{
												OFFSET -0.019810 0.000002 -0.000096
											}
										}
									}
								}
								JOINT RightThumbProximal
								{
									OFFSET -0.002047 -0.006641 0.017836
									CHANNELS 3 Zrotation Xrotation Yrotation
									JOINT RightThumbIntermediate
									{
										OFFSET -0.032565 -0.005700 0.032749
										CHANNELS 3 Zrotation Xrotation Yrotation
										JOINT RightThumbDistal
										{
											OFFSET -0.020816 -0.005081 0.018978
											CHANNELS 3 Zrotation Xrotation Yrotation
											End Site
											{
												OFFSET -0.020815 -0.005081 0.018979
											}
										}
									}
								}
							}
						}
					}
				}
			}
		}
	}
	JOINT LeftUpperLeg
	{
		OFFSET 0.077122 -0.039594 -0.005714
		CHANNELS 3 Zrotation Xrotation Yrotation
		JOINT LeftLowerLeg
		{
			OFFSET 0.000000 -0.343087 0.003688
			CHANNELS 3 Zrotation Xrotation Yrotation
			JOINT LeftFoot
			{
				OFFSET 0.000000 -0.401029 -0.031321
				CHANNELS 3 Zrotation Xrotation Yrotation
				JOINT LeftToes
				{
					OFFSET 0.000000 -0.001591 0.127952
					CHANNELS 3 Zrotation Xrotation Yrotation
					End Site
					{
						OFFSET -0.000000 -0.001591 0.127952
					}
				}
			}
		}
	}
	JOINT RightUpperLeg
	{
		OFFSET -0.077122 -0.039594 -0.005714
		CHANNELS 3 Zrotation Xrotation Yrotation
		JOINT RightLowerLeg
		{
			OFFSET -0.000000 -0.343087 0.003689
			CHANNELS 3 Zrotation Xrotation Yrotation
			JOINT RightFoot
			{
				OFFSET 0.000000 -0.401030 -0.031318
				CHANNELS 3 Zrotation Xrotation Yrotation
				JOINT RightToes
				{
					OFFSET -0.000000 -0.001590 0.127952
					CHANNELS 3 Zrotation Xrotation Yrotation
					End Site
					{
						OFFSET 0.000000 -0.001590 0.127952
					}
				}
			}
		}
	}
}
MOTION
Frames: 4
Frame Time: 0.016667
-0.003462 0.795596 0.016523 1.554109 0.746266 -15.711447 -0.688562 0.099242 -4.405269 3.881284 -3.821416 -0.159690 0.173735 -3.819101 -0.174643 -6.220821 -2.928589 4.448098 -9.939909 8.757378 11.806272 -0.000000 -0.000003 0.000000 -0.000000 -0.000003 0.000000 -3.267595 -0.186034 -0.587973 -75.189092 -22.196067 2.748759 9.298108 24.513184 -124.421212 -54.799878 -24.199008 -27.537067 0.709418 3.569218 10.333003 -10.565888 1.389009 -1.161631 -12.182285 -0.440698 -0.387397 -5.455204 4.331472 -0.044801 -14.594968 -0.000366 0.000013 -12.186541 0.000013 0.000091 -1.246699 3.572427 7.449298 -15.833266 -0.000015 -0.000008 -12.194867 -0.000001 -0.000011 -1.550151 3.802256 4.806619 -19.683796 -0.000005 0.000057 -12.194869 0.000010 -0.000003 9.025050 -18.294515 16.602824 -4.736442 1.412039 27.168321 -3.522015 0.819298 23.208050 5.389203 0.298414 0.361049 62.576076 23.941476 3.125678 1.094624 -1.835581 121.166586 32.714772 -19.065510 14.372781 13.631474 2.348366 -5.499031 16.253820 1.281422 1.187360 17.867186 -0.616011 0.598201 21.324520 8.713546 8.330916 17.631969 -0.000350 -0.000034 17.883307 0.000016 -0.000090 17.395916 3.555442 -2.603989 17.927073 0.000005 0.000027 17.683536 -0.000001 0.000006 20.885489 6.462909 3.767147 17.089311 -0.000005 0.000025 17.547434 0.000017 0.000021 -2.193606 -1.349945 -21.652746 4.892367 1.365001 -24.424026 3.659812 0.785824 -20.077181 -1.954738 -3.712914 -6.738934 0.001552 9.645898 0.017240 -5.228193 -3.143951 2.564513 0.000000 0.000001 -0.000002 -1.087695 -1.414669 26.215603 0.000688 12.032416 -0.017069 4.861294 -4.859778 -2.349575 0.000000 0.000000 0.000001 
-0.003440 0.795595 0.016499 1.534120 0.744583 -15.775835 -0.681811 0.123556 -4.454668 3.900348 -3.826630 -0.169190 0.202917 -3.824332 -0.188619 -6.186149 -2.942294 4.443348 -9.812194 8.712121 11.795275 -0.000000 -0.000003 0.000000 -0.000000 -0.000003 0.000000 -3.109300 -0.251586 -0.641200 -75.422555 -22.295944 2.915341 9.286719 24.513528 -124.399875 -54.799878 -24.199003 -27.537086 0.709426 3.569221 10.333032 -10.565906 1.389001 -1.161639 -12.182276 -0.440686 -0.387392 -5.455203 4.331475 -0.044779 -14.594974 -0.000395 0.000000 -12.186532 0.000016 0.000095 -1.246708 3.572410 7.449311 -15.833260 0.000003 0.000001 -12.194861 0.000003 -0.000027 -1.550152 3.802262 4.806651 -19.683787 -0.000009 0.000054 -12.194883 0.000014 -0.000023 9.025056 -18.294515 16.602841 -4.736444 1.412039 27.168327 -3.522015 0.819304 23.208035 5.487665 0.365638 0.299346 62.395438 23.969241 3.277967 1.094834 -1.835588 121.168772 32.714748 -19.065503 14.372776 13.631485 2.348375 -5.499013 16.253837 1.281405 1.187350 17.867172 -0.616016 0.598194 21.324518 8.713537 8.330909 17.631975 -0.000353 -0.000019 17.883312 0.000009 -0.000088 17.395920 3.555455 -2.603975 17.927071 0.000012 0.000021 17.683527 -0.000002 0.000014 20.885496 6.462912 3.767154 17.089301 0.000009 0.000018 17.547461 0.000009 0.000035 -2.193599 -1.349942 -21.652743 4.892371 1.365026 -24.424017 3.659816 0.785817 -20.077181 -1.955350 -3.729517 -6.652482 0.001606 9.701805 0.018182 -5.377571 -3.153420 2.571414 -0.000000 0.000001 -0.000000 -1.052655 -1.382193 26.319432 -0.018902 12.008125 -0.017801 4.978186 -4.815122 -2.360143 -0.000000 0.000001 0.000000 
-0.003423 0.795590 0.016482 1.525761 0.748987 -15.843406 -0.682663 0.142543 -4.497543 3.920229 -3.832139 -0.177530 0.217959 -3.825548 -0.194808 -6.169921 -2.948471 4.441068 -9.752491 8.690197 11.790083 0.000001 -0.000001 -0.000001 0.000001 -0.000001 -0.000001 -3.034722 -0.277909 -0.659955 -75.579288 -22.374358 2.993517 9.279737 24.513779 -124.386856 -54.799888 -24.199008 -27.537091 0.709435 3.569222 10.333033 -10.565894 1.388988 -1.161649 -12.182275 -0.440694 -0.387398 -5.455185 4.331477 -0.044779 -14.594980 -0.000375 -0.000009 -12.186531 -0.000003 0.000091 -1.246684 3.572394 7.449317 -15.833261 0.000005 -0.000009 -12.194865 -0.000004 -0.000012 -1.550139 3.802244 4.806631 -19.683784 -0.000018 0.000071 -12.194861 0.000003 -0.000015 9.025067 -18.294522 16.602839 -4.736445 1.412044 27.168305 -3.522016 0.819303 23.208064 5.534049 0.398302 0.268844 62.305805 23.993049 3.355710 1.094927 -1.835569 121.171258 32.714745 -19.065505 14.372774 13.631478 2.348360 -5.498999 16.253827 1.281409 1.187335 17.867165 -0.616004 0.598209 21.324510 8.713535 8.330917 17.631968 -0.000354 -0.000014 17.883310 0.000013 -0.000099 17.395908 3.555447 -2.603988 17.927051 0.000011 0.000021 17.683565 -0.000012 0.000022 20.885498 6.462915 3.767156 17.089302 -0.000013 0.000024 17.547446 0.000001 0.000043 -2.193597 -1.349951 -21.652731 4.892380 1.365005 -24.424015 3.659826 0.785813 -20.077191 -1.956004 -3.752789 -6.606584 0.000683 9.740812 0.018675 -5.456978 -3.156485 2.575071 -0.000000 0.000001 -0.000002 -1.035038 -1.385833 26.374127 -0.019420 12.011701 -0.018139 5.039194 -4.797204 -2.365229 -0.000001 -0.000001 0.000000 
-0.003404 0.795588 0.016460 1.519622 0.759635 -15.912051 -0.683099 0.156334 -4.535967 3.940641 -3.840513 -0.184683 0.233401 -3.825703 -0.200078 -6.154409 -2.954427 4.438747 -9.695740 8.668523 11.785047 0.000000 -0.000003 0.000000 0.000000 -0.000003 0.000000 -2.965441 -0.298198 -0.671601 -75.732591 -22.444913 3.058164 9.271500 24.514010 -124.371488 -54.799875 -24.199002 -27.537089 0.709427 3.569226 10.333022 -10.565896 1.389005 -1.161634 -12.182278 -0.440688 -0.387398 -5.455181 4.331477 -0.044778 -14.594984 -0.000375 -0.000017 -12.186537 0.000005 0.000078 -1.246690 3.572412 7.449322 -15.833268 -0.000019 -0.000014 -12.194872 0.000010 -0.000015 -1.550127 3.802251 4.806650 -19.683794 -0.000013 0.000037 -12.194867 0.000004 -0.000008 9.025064 -18.294513 16.602843 -4.736429 1.412048 27.168317 -3.522027 0.819309 23.208039 5.578843 0.431470 0.237300 62.217505 24.016619 3.434386 1.095045 -1.835549 121.172706 32.714752 -19.065484 14.372776 13.631497 2.348347 -5.498994 16.253825 1.281405 1.187341 17.867170 -0.616004 0.598192 21.324513 8.713524 8.330917 17.631978 -0.000353 -0.000019 17.883308 0.000007 -0.000087 17.395915 3.555436 -2.603977 17.927063 -0.000002 0.000010 17.683536 0.000009 0.000015 20.885513 6.462914 3.767150 17.089302 -0.000012 0.000028 17.547432 0.000001 0.000033 -2.193587 -1.349942 -21.652731 4.892371 1.365014 -24.424010 3.659816 0.785801 -20.077206 -1.958014 -3.750283 -6.560494 0.003969 9.749750 0.019094 -5.537973 -3.160083 2.578694 -0.000000 0.000000 0.000001 -1.017361 -1.437690 26.429299 -0.000750 12.054161 -0.018433 5.101159 -4.782400 -2.370148 0.000000 0.000001 0.000000 
